<svg width="11.37" height="12.001" version="1.1" viewBox="0 0 11.37 12.001" xmlns="http://www.w3.org/2000/svg">
 <path d="m11.37 5.379-5.64 5.64c-0.655 0.655-1.515 0.982-2.374 0.982-1.855 0-3.356-1.498-3.356-3.356 0-0.86 0.327-1.721 0.981-2.375l5.54-5.539c0.487-0.487 1.125-0.731 1.765-0.731 2.206 0 3.338 2.686 1.765 4.259l-4.919 4.919c-0.634 0.634-1.665 0.634-2.298 0-0.634-0.633-0.634-1.664 0-2.298l3.97-3.97 0.828 0.828-3.97 3.97c-0.178 0.177-0.178 0.465 0 0.642 0.177 0.178 0.465 0.178 0.642 0l4.919-4.918c1.239-1.243-0.636-3.112-1.873-1.874l-5.54 5.54c-0.853 0.853-0.853 2.24 0 3.094 0.854 0.852 2.24 0.852 3.093 0l5.64-5.64z" fill="#0B6BD6"/>
</svg>
