<svg xmlns="http://www.w3.org/2000/svg" id="ic_issue_wallfixing_24px" width="24" height="24" viewBox="0 0 24 24">
    <defs>
        <style>
            .cls-2{fill:#505253}
        </style>
    </defs>
    <g id="그룹_2902" transform="translate(-8749 -7620)">
        <path id="사각형_3313" fill="none" d="M0 0H24V24H0z" transform="translate(8749 7620)"/>
        <g id="그룹_2886" transform="translate(8753 7624)">
            <path id="패스_1018" d="M603.622 345.176h-2v-.436a.3.3 0 0 0-.3-.291h-.7v-.485a.986.986 0 0 0-1-.97h-1a.985.985 0 0 0-1-.969h-11a.985.985 0 0 0-1 .97v4.848a.985.985 0 0 0 1 .969h3v4.364h-1a1.012 1.012 0 0 0-.707.285.951.951 0 0 0-.293.685v2.909a.953.953 0 0 0 .293.686 1.015 1.015 0 0 0 .707.284h6a.988.988 0 0 0 .833-.466.917.917 0 0 0 .167-.5v-2.909a.933.933 0 0 0-.079-.377 1 1 0 0 0-.921-.593h-1v-2.424h1a.986.986 0 0 0 1-.97v-.969h2a.984.984 0 0 0 1-.969h1a.986.986 0 0 0 1-.97v-.485h.7a.3.3 0 0 0 .3-.291v-.436h2zm-9 8.97v2.909h-6v-2.909zm0-4.364h-1v-.969h1zm-1-1.939h-1v5.333h-2v-5.333h-4v-4.848h11v4.846zm6-.97h-1v-2.909h1z" class="cls-2" transform="translate(-585.622 -342.025)"/>
            <rect id="사각형_2894" width="8" height=".97" class="cls-2" rx=".485" transform="translate(2 2.909)"/>
        </g>
    </g>
</svg>
