<svg xmlns="http://www.w3.org/2000/svg" id="ic_issue_morethan1person_24px" width="24" height="24" viewBox="0 0 24 24">
    <defs>
        <style>
            .cls-2{fill:#505253}
        </style>
    </defs>
    <path id="사각형_3311" fill="none" d="M0 0H24V24H0z"/>
    <g id="그룹_2890" transform="translate(3 3)">
        <path id="패스_1033" d="M528.726 356.417v-2.487h-.517l-.856.735-.032.027.364.414.433-.394-.009.156v1.549h-.571v.52h1.693v-.52z" class="cls-2" transform="translate(-519.276 -341.025)"/>
        <g id="그룹_2332">
            <path id="패스_1034" d="M521.554 354.447a8.058 8.058 0 0 0 .6.8 9.167 9.167 0 0 1 11.972.3 8.1 8.1 0 0 0 .639-.768 10.158 10.158 0 0 0-13.212-.325z" class="cls-2" transform="translate(-519.276 -341.025)"/>
            <path id="패스_1035" d="M528.276 341.025a8.937 8.937 0 0 0-8.906 10.231c.013.1.028.193.044.288a8.775 8.775 0 0 0 .274 1.173 8.74 8.74 0 0 0 .442 1.109c.035.074.069.148.106.221a9.169 9.169 0 0 0 .6 1.034 9.052 9.052 0 0 0 1.249 1.457l.073.067q.3.276.619.527c.046.035.092.068.138.1.2.147.4.286.609.417l.193.118c.2.116.4.223.6.324.081.04.16.08.242.117.2.089.4.169.6.245.094.035.187.071.282.1.2.067.405.122.611.174.1.026.2.056.3.079.216.047.437.08.658.111.1.014.189.034.286.044a8.842 8.842 0 0 0 1.905.005c.074-.008.145-.024.219-.034.234-.03.468-.063.7-.111.066-.014.13-.035.2-.05.233-.055.465-.113.691-.186.048-.015.094-.035.141-.051.243-.083.481-.171.714-.273l.08-.038c.25-.113.495-.235.733-.369l.031-.019a9.034 9.034 0 0 0 4.008-4.743c.029-.079.06-.156.086-.235.048-.143.09-.289.131-.435.035-.126.068-.253.1-.381s.057-.251.081-.378c.031-.167.055-.335.077-.505.013-.1.029-.2.038-.3.026-.277.043-.557.043-.841a9.01 9.01 0 0 0-8.998-8.992zm-8.011 8.178a8.042 8.042 0 0 1 14.2-4.315l-3.36 1.286a3.235 3.235 0 0 0-5.989 2.292l-4.867 1.863c0-.1-.023-.2-.023-.3a7.96 7.96 0 0 1 .039-.829zm10.261-1.458a2.247 2.247 0 0 1-4.091 1.286l4.063-1.555a2.172 2.172 0 0 1 .028.269zm-4.464.358a2.218 2.218 0 0 1-.036-.358 2.246 2.246 0 0 1 4.139-1.213zm10.17 3.1c-.011.071-.02.141-.033.211a7.867 7.867 0 0 1-.281 1.129l-.019.053a8.126 8.126 0 0 1-1.133 2.172 8.1 8.1 0 0 1-.639.768 8.153 8.153 0 0 1-1.21 1.054c-.211.15-.431.289-.656.419l-.03.018c-.213.121-.432.23-.656.332l-.074.035c-.21.093-.426.173-.645.248-.041.014-.08.031-.121.044-.2.067-.416.12-.628.169-.057.014-.112.032-.169.044-.208.044-.421.074-.634.1-.063.009-.124.022-.187.029a7.8 7.8 0 0 1-1.71 0c-.085-.009-.168-.027-.252-.039-.2-.028-.4-.058-.594-.1-.093-.021-.184-.048-.276-.072-.183-.047-.365-.1-.543-.155-.088-.029-.174-.063-.26-.1-.18-.066-.357-.137-.53-.216-.077-.035-.152-.073-.228-.11q-.27-.133-.528-.285c-.062-.037-.125-.075-.186-.114q-.274-.173-.532-.365l-.137-.1c-.188-.146-.369-.3-.543-.463l-.077-.07a8.176 8.176 0 0 1-.566-.6 7.909 7.909 0 0 1-.6-.8 8.032 8.032 0 0 1-.516-.914c-.024-.051-.05-.1-.073-.153a7.976 7.976 0 0 1-.39-1.005v-.016a7.826 7.826 0 0 1-.227-1l5.146-1.97a3.24 3.24 0 0 0 6.036-1.648 3.278 3.278 0 0 0-.065-.638l3.618-1.385a8.007 8.007 0 0 1 1.208 3.481q.041.4.041.822a8.065 8.065 0 0 1-.101 1.194z" class="cls-2" transform="translate(-519.276 -341.025)"/>
        </g>
    </g>
</svg>
