<svg xmlns="http://www.w3.org/2000/svg" id="ic_issue_trash_24px" width="24" height="24" viewBox="0 0 24 24">
    <defs>
        <style>
            .cls-2{fill:#505253}
        </style>
    </defs>
    <path id="사각형_3312" fill="none" d="M0 0H24V24H0z"/>
    <g id="그룹_2889" transform="translate(4.5 4)">
        <path id="패스_1023" d="M362.307 356.17a.521.521 0 0 0 .539-.5v-7.3a.54.54 0 0 0-1.077 0v7.3a.52.52 0 0 0 .538.5z" class="cls-2" transform="translate(-354.909 -341.524)"/>
        <path id="패스_1024" d="M364.62 356.17a.52.52 0 0 0 .539-.5v-7.3a.54.54 0 0 0-1.077 0v7.3a.52.52 0 0 0 .538.5z" class="cls-2" transform="translate(-354.909 -341.524)"/>
        <path id="패스_1025" d="M359.995 356.17a.52.52 0 0 0 .538-.5v-7.3a.539.539 0 0 0-1.076 0v7.3a.52.52 0 0 0 .538.5z" class="cls-2" transform="translate(-354.909 -341.524)"/>
        <path id="패스_1026" d="M369.408 343.527h-4.5v-1.508a.5.5 0 0 0-.495-.5H360.4a.5.5 0 0 0-.5.5v1.508h-4.5a.5.5 0 0 0-.5.5v2a.5.5 0 0 0 .5.5h1.076v10a2.084 2.084 0 0 0 2.154 2h7.538a2.083 2.083 0 0 0 2.154-2v-10h1.076a.5.5 0 0 0 .5-.5v-2a.5.5 0 0 0-.49-.5zm-8.5-1h3v1h-3zm6.346 14a1.042 1.042 0 0 1-1.077 1h-7.537a1.042 1.042 0 0 1-1.077-1v-10h9.691zm1.654-11H367.3c-.015 0-.028-.008-.044-.008h-9.692c-.016 0-.028.008-.044.008h-1.61v-1h13z" class="cls-2" transform="translate(-354.909 -341.524)"/>
    </g>
</svg>
