<svg xmlns="http://www.w3.org/2000/svg" id="ic_loading" width="40" height="40" viewBox="0 0 40 40">
    <defs>
        <style>
            .cls-1{fill:#242020}
        </style>
    </defs>
    <path id="패스_1332" d="M402.483 184.55a.769.769 0 0 0-.736-.519h-.132l-.045.005-.06.005-.217.028h-.008a18.061 18.061 0 0 1-13.009-32.969l-.367 3.808a1.04 1.04 0 0 0 2.07.2l.6-6.209a1.038 1.038 0 0 0-.935-1.135l-6.209-.6a1.039 1.039 0 1 0-.2 2.069l4 .385a19.881 19.881 0 0 0 10.851 36.565 18.949 18.949 0 0 0 3.414-.347l.027-.007.043-.007.02-.008c.093-.023.24-.057.3-.076v-.013a.889.889 0 0 0 .593-1.175z" class="cls-1" transform="translate(-378.161 -146.186)"/>
    <path id="패스_1333" d="M389.935 148.067a.771.771 0 0 0 .736.519h.133l.044-.005.061-.005.216-.028h.008a18.062 18.062 0 0 1 13.009 32.963l.367-3.808a1.04 1.04 0 0 0-2.07-.2l-.6 6.209a1.04 1.04 0 0 0 .935 1.135l6.21.6a1.039 1.039 0 0 0 .2-2.069l-4-.385a19.882 19.882 0 0 0-10.851-36.567 18.949 18.949 0 0 0-3.414.348l-.025.007-.043.007-.021.008c-.092.023-.239.057-.3.076v.013a.89.89 0 0 0-.595 1.182z" class="cls-1" transform="translate(-374.259 -146.43)"/>
</svg>
