<svg xmlns="http://www.w3.org/2000/svg" id="ic_logout" width="20" height="20" viewBox="0 0 20 20">
    <defs>
        <style>
            .cls-1{fill:#242020}
        </style>
    </defs>
    <path id="패스_1301" d="M390.16 93.218a.519.519 0 0 0 .106-.563.518.518 0 0 0-.08-.121.422.422 0 0 0-.033-.049l-3.974-3.972a.525.525 0 0 0-.743.743l3.079 3.076-12.661-.032a.524.524 0 1 0 0 1.049l12.66.031-3.078 3.076a.525.525 0 0 0 .743.742l3.974-3.972z" class="cls-1" transform="translate(-370.307 -83.396)"/>
    <path id="패스_1302" d="M379.812 102.346h-7.005a1.543 1.543 0 0 1-1.5-1.579V86.028a1.543 1.543 0 0 1 1.5-1.579h7.005a.526.526 0 0 0 0-1.05h-7.005a2.572 2.572 0 0 0-2.5 2.632v14.736a2.572 2.572 0 0 0 2.5 2.632h7.005a.526.526 0 0 0 0-1.05z" class="cls-1" transform="translate(-370.306 -83.396)"/>
</svg>
