<svg xmlns="http://www.w3.org/2000/svg" id="ic_sildelist_increase" width="24" height="24" viewBox="0 0 24 24">
    <defs>
        <style>
            .cls-1{fill:#505357}
        </style>
    </defs>
    <g id="그룹_3812" transform="translate(-272.104 -57.961)">
        <path id="패스_1296" d="M276.638 69.961a.533.533 0 0 0 .531-.527v-6.086a.319.319 0 0 1 .319-.32h6.081a.534.534 0 0 0 0-1.067h-7.147a.319.319 0 0 0-.32.319v7.154a.533.533 0 0 0 .536.527z" class="cls-1"/>
        <path id="패스_1297" d="M291.571 69.961a.532.532 0 0 0-.532.526v6.086a.32.32 0 0 1-.32.32h-6.08a.534.534 0 0 0 0 1.068h7.147a.32.32 0 0 0 .319-.32v-7.154a.533.533 0 0 0-.534-.526z" class="cls-1"/>
    </g>
    <path id="사각형_4447" fill="none" d="M0 0H24V24H0z"/>
</svg>
