<svg xmlns="http://www.w3.org/2000/svg" id="logo_mobilecm_symbol" width="104" height="104" viewBox="0 0 104 104">
    <defs>
        <style>
            .cls-1{fill:#fff}
        </style>
    </defs>
    <g id="그룹_3346">
        <circle id="타원_641" cx="51.5" cy="51.5" r="51.5" transform="translate(0 .001)"/>
        <g id="그룹_3097" transform="translate(20.648 38.199)">
            <path id="패스_1162" d="M120.562 526.921h-10.309a8.909 8.909 0 0 1 0-17.816h10.26a2.227 2.227 0 1 0 0-4.454h-10.634a13.362 13.362 0 1 0 0 26.724h10.637a2.226 2.226 0 0 0 .047-4.451z" class="cls-1" transform="translate(-96.425 -504.651)"/>
            <path id="패스_1137" d="M148.9 504.891a2.248 2.248 0 0 1 2.88 1.311l.025.07 8.134 22.088a2.373 2.373 0 0 1-1.278 3.038 2.248 2.248 0 0 1-2.88-1.312l-.024-.069-8.134-22.088a2.372 2.372 0 0 1 1.277-3.038z" class="cls-1" transform="translate(-117.156 -504.693)"/>
            <path id="패스_1137-2" d="M180.9 504.891a2.248 2.248 0 0 1 2.88 1.311l.025.07 8.134 22.088a2.373 2.373 0 0 1-1.278 3.038 2.248 2.248 0 0 1-2.88-1.312l-.024-.069-8.134-22.088a2.372 2.372 0 0 1 1.277-3.038z" class="cls-1" transform="translate(-130.155 -504.693)"/>
            <path id="패스_1137-3" d="M164.9 504.891a2.248 2.248 0 0 1 2.88 1.311l.025.07 8.134 22.088a2.373 2.373 0 0 1-1.278 3.038 2.248 2.248 0 0 1-2.88-1.312l-.024-.069-8.134-22.088a2.372 2.372 0 0 1 1.277-3.038z" class="cls-1" transform="translate(-123.655 -504.693)"/>
        </g>
    </g>
</svg>
